<svg width="44" height="44" viewBox="0 0 44 44" fill="none" xmlns="http://www.w3.org/2000/svg">
  <!-- Fond avec effet de brillance -->
  <rect width="44" height="44" rx="12" fill="hsl(210 100% 50%)" />
  <rect width="44" height="44" rx="12" fill="url(#shineOverlay)" style="mix-blend-mode: overlay;"/>
  
  <!-- Icône de lecture moderne -->
  <path d="M17 15L30 22L17 29V15Z" fill="white"/>
  
  <!-- Effet de vague subtil -->
  <path d="M12 22C12 22 14 18 17 18C20 18 22 22 22 22C22 22 24 18 27 18C30 18 32 22 32 22C32 22 30 26 27 26C24 26 22 22 22 22C22 22 20 26 17 26C14 26 12 22 12 22Z" fill="white" fill-opacity="0.15"/>
  
  <defs>
    <linearGradient id="shineOverlay" x1="0" y1="0" x2="1" y2="1" gradientUnits="objectBoundingBox">
      <stop offset="0" stop-color="white" stop-opacity="0"/>
      <stop offset="0.5" stop-color="white" stop-opacity="0.1"/>
      <stop offset="1" stop-color="white" stop-opacity="0"/>
    </linearGradient>
  </defs>
</svg>
